/* XPM */
static char *result[] = {
/* columns rows colors chars-per-pixel */
"60 60 243 2 ",
"   c #10025E",
".  c #270A56",
"X  c #0C2958",
"o  c #1A2956",
"O  c #15325A",
"+  c #232B58",
"@  c #020063",
"#  c #01046C",
"$  c #080D68",
"%  c #180E6A",
"&  c #0B1667",
"*  c #13146E",
"=  c #111D62",
"-  c #020C72",
";  c #070C75",
":  c #051274",
">  c #011379",
",  c #041B7B",
"<  c #091879",
"1  c #131472",
"2  c #130E7D",
"3  c #271775",
"4  c #1B2869",
"5  c #03227B",
"6  c #022877",
"7  c #132D78",
"8  c #05347A",
"9  c #052963",
"0  c #2D3077",
"q  c #35416B",
"w  c #28417A",
"e  c #484C79",
"r  c #031C82",
"t  c #061887",
"y  c #071991",
"u  c #052384",
"i  c #022A84",
"p  c #03268D",
"a  c #022C8C",
"s  c #0B2586",
"d  c #03318B",
"f  c #0C3888",
"g  c #13358D",
"h  c #15388B",
"j  c #032694",
"k  c #032C94",
"l  c #062898",
"z  c #192998",
"x  c #053195",
"c  c #0C3293",
"v  c #04329C",
"b  c #01399B",
"n  c #083898",
"m  c #123A97",
"M  c #142A84",
"N  c #292986",
"B  c #2B3D86",
"V  c #252B95",
"C  c #32338D",
"Z  c #0329A2",
"A  c #023BA5",
"S  c #0438A7",
"D  c #1539AB",
"F  c #054287",
"G  c #1D428B",
"H  c #084199",
"J  c #174898",
"K  c #17539A",
"L  c #25439D",
"P  c #2C429A",
"I  c #214796",
"U  c #33429B",
"Y  c #3B459B",
"T  c #3C4397",
"R  c #255598",
"E  c #2E4E8D",
"W  c #0042AB",
"Q  c #014BAD",
"!  c #0446A7",
"~  c #1A45A7",
"^  c #0445B2",
"/  c #014CB3",
"(  c #0B4AB5",
")  c #034BBB",
"_  c #1349BA",
"`  c #0254B6",
"'  c #0259B4",
"]  c #015BBC",
"[  c #0054BE",
"{  c #1152AA",
"}  c #2645A5",
"|  c #2858A4",
" . c #3857A3",
".. c #2459B6",
"X. c #3548B0",
"o. c #0168BD",
"O. c #0061AD",
"+. c #3866A8",
"@. c #3A6DAC",
"#. c #494688",
"$. c #464A98",
"%. c #535A98",
"&. c #616D88",
"*. c #4555A5",
"=. c #4C55AB",
"-. c #587BB6",
";. c #4567AE",
":. c #6A78AD",
">. c #0E37C7",
",. c #044CC1",
"<. c #0759C7",
"1. c #115DC5",
"2. c #0F57D7",
"3. c #3056C6",
"4. c #0165C4",
"5. c #006AC6",
"6. c #026BCC",
"7. c #0461CB",
"8. c #0876C8",
"9. c #0176D4",
"0. c #1B78D8",
"q. c #0D6DCD",
"w. c #276DC6",
"e. c #2477C2",
"r. c #2779D8",
"t. c #386ED4",
"y. c #037AE4",
"u. c #1074ED",
"i. c #2E75F4",
"p. c #4C6AD8",
"a. c #4D79E8",
"s. c #6A8FBB",
"d. c #7988BC",
"f. c #7791B8",
"g. c #798CA5",
"h. c #0784D5",
"j. c #188AD2",
"k. c #0E89CF",
"l. c #2B81CA",
"z. c #2C81C6",
"x. c #2994CC",
"c. c #2888D2",
"v. c #2694D6",
"b. c #3591D7",
"n. c #368ACC",
"m. c #32A4D8",
"M. c #158EEA",
"N. c #0391E9",
"B. c #1899E6",
"V. c #088AF6",
"C. c #0598FE",
"Z. c #1B97F7",
"A. c #008AEC",
"S. c #298AE8",
"D. c #2A98E6",
"F. c #3B96E8",
"G. c #3589F0",
"H. c #18A4EB",
"J. c #08A3FC",
"K. c #1AB7FA",
"L. c #14B2F9",
"P. c #2AB9E7",
"I. c #39B8E8",
"U. c #26BAFB",
"Y. c #2CACF2",
"T. c #4994CD",
"R. c #5887D8",
"E. c #5B8FCE",
"W. c #6989C8",
"Q. c #7997CA",
"!. c #718FCE",
"~. c #48A2DB",
"^. c #76ACDC",
"/. c #7BB8D9",
"(. c #4894E4",
"). c #4981EA",
"_. c #6389E5",
"`. c #4DADF1",
"'. c #67ACE5",
"]. c #75AFFE",
"[. c #65B7F7",
"{. c #7AB6FB",
"}. c #66AEF4",
"|. c #12C8F9",
" X c #2BC7FA",
".X c #39C2FA",
"XX c #2AD6FB",
"oX c #3DDAFD",
"OX c #2AE5F8",
"+X c #37EAF6",
"@X c #4BD8FD",
"#X c #50CDF9",
"$X c #6BD2F5",
"%X c #7AD6F6",
"&X c #74C6FA",
"*X c #58E9FC",
"=X c #4AEDF5",
"-X c #7EEEFA",
";X c #65F1F7",
":X c #74F3F9",
">X c #949FC5",
",X c #93ABD0",
"<X c #A7AECE",
"1X c #85ABE5",
"2X c #82BAE8",
"3X c #89B9FA",
"4X c #97BBF7",
"5X c #95B6E7",
"6X c #8AD7EC",
"7X c #88C6FB",
"8X c #91C9FD",
"9X c #86DEF6",
"0X c #9BD6FD",
"qX c #93CAED",
"wX c #A6C7FD",
"eX c #A7D6F8",
"rX c #BAD7FA",
"tX c #B4D3E8",
"yX c #99F6FA",
"uX c #89EEF9",
"iX c #ADE3FD",
"pX c #ADEDFD",
"aX c #B4E9FC",
"sX c #A5F7FC",
"dX c #B2F5FC",
"fX c #C9DBEC",
"gX c #C8D2F3",
"hX c #C3ECFD",
"jX c #C6EAFD",
"kX c #C4F5FA",
"lX c #C6F7FB",
"zX c #D4F5FB",
"xX c #DEF9FE",
"cX c #DAF8FC",
"vX c #E2F6FB",
"bX c #EBFBFE",
"nX c #E4F6FB",
"mX c #F3F6FA",
"MX c #F5FBFC",
"NX c #FBFEFD",
"BX c #F0F1F4",
"VX c #EAEBF0",
"CX c None",
/* pixels */
"CXCXCXCXCXCXCXCXCXCXCXCXCXCXCXCXCXCXCXCXCXCXCXCXCXCXCXCXCXCXCXCXCXCXCXCXCXCXCXCXCXCXCXCXCXCXCXCXCXCXCXCXCXCXCXCXCXCXCXCX",
"CXCXCXCXCXCXCXCXCXCXCXCXCXCXCXCXCXCXCXCXCXCXCXCXCXCXCXCXCXCXCXCXCXCXCXCXCXCXCXCXCXCXCXCXCXCXCXCXCXCXCXCXCXCXCXCXCXCXCXCX",
"CXCXCXCXCXCXCXCXCXCXCXCXCXCXCXCXCXCXCXCXCXCXCXCXCXCXCXCXCXCXCXCXCXCXCXCXCXCXCXCXCXCXCXCXCXCXCXCXCXCXCXCXCXCXCXCXCXCXCXCX",
"CXCXCXCXCXCXCXCXCXCXCXCXCXCXCXCXCXCXCXCXCXCXCXCXCXCXCXCXCXCXCXCXCXCXCXCXCXCXCXCXCXCXCXCXCXCXCXCXCXCXCXCXCXCXCXCXCXCXCXCX",
"CXCXCXCXCXCXCXCXCXCXCXCXCXCXCXCXCXCXCXCXCXCXCXCXCXCXCXCXCXCXCXCXCXCXCXCXCXCXCXCXCXCXCXCXCXCXCXCXCXCXCXCXCXCXCXCXCXCXCXCX",
"CXCXCXCXCXCXCXCXCXCXCXCXCXCXCXCXCXCXCXCXCXCXCXCXCXCXCXCXCXCXCXCXCXCXCXCXCXCXCXCXCXCXCXCXCXCXCXCXCXCXCXCXCXCXCXCXCXCXCXCX",
"CXCXCXCXCXCXCXCXCXCXCXCXCXCXCXCXCXCXCXCXCXCXCXCXCXCXCXCXCXCXCXCXCXCXCXCXCXCXCXCXCXCXCXCXCXCXCXCXCXCXCXCXCXCXCXCXCXCXCXCX",
"CXCXCXCXCXCXCXCXCXCXCXCXCXCXCXCXCXCXCXCXCXCXCXCXCXCXCXCXCXCXCXCXCXCXCXCXCXCXCXCXCXCXCXCXCXCXCXCXCXCXCXCXCXCXCXCXCXCXCXCX",
"CXCXCXCXCXCXCXCXCXCXCXCXCXCXCXCXCXCXCXCXCXCXCXCXCXCXCXCXCXCXCXCXCXCXCXCXCXCXCXCXCXCXCXCXCXCXCXCXCXCXCXCXCXCXCXCXCXCXCXCX",
"CXCXCXCXCXCXCXCXCXCXCXCXCXCXCXCXCXCXCXCXCXCXCXCXCXCXCXCXCXCXmXNXbXCXCXCXCXCXCXCXCXCXCXCXCXCXCXCXCXCXCXCXCXCXCXCXCXCXCXCX",
"CXCXCXCXCXCXCXCXCXCXCXCXCXCXCXCXCXCXCXCXCXCXCXCXCXCXCXCXCXMXNXNXzXdXCXCXCXCXCXCXCXCXCXCXCXCXCXCXCXCXCXCXCXCXCXCXCXCXCXCX",
"CXCXCXCXCXCXCXCXCXCXCXCXCXCXCXCXCXCXCXCXCXCXCXCXCXCXCXCXNXNXNXNXnX6XCXCXCXCXCXCXCXCXCXCXCXCXCXCXCXCXCXCXCXCXCXCXCXCXCXCX",
"CXCXCXCXCXCXCXCXCXCXCXCXCXCXCXCXCXCXCXCXCXCXCXCXCXCXCXNXNXNXNXNXNX,X9XCXCXCXCXCXCXCXCXCXCXCXCXCXCXCXCXCXCXCXCXCXCXCXCXCX",
"CXCXCXCXCXCXCXCXCXCXCXCXCXCXCXCXCXCXCXCXCXCXCXCXCXCXNXNXNXMXMXNXBX<XQ.9XCXCXCXCXCXCXCXCXCXCXCXCXCXCXCXCXCXCXCXCXCXCXCXCX",
"CXCXCXCXCXCXCXCXCXCXCXCXCXCXCXCXCXCXCXCXCXCXCXCXCXNXMXbXbXbXbXMXVX>Xd.W.6XCXCXCXCXCXCXCXCXCXCXCXCXCXCXCXCXCXCXCXCXCXCXCX",
"CXCXCXCXCXCXCXCXCXCXCXCXCXCXCXCXCXCXCXCXCXCXCXCXmXNXxXzXxXxXvXNXmX>Xd.W.W.3XCXCXCXCXCXCXCXCXCXCXCXCXCXCXCXCXCXCXCXCXCXCX",
"CXCXCXCXCXCXCXCXCXCXCXCXCXCXCXCXCXCXCXCXCXCXCXCXnXcXaXhXlXzXvXNXNX<Xf.W.W._.7XCXCXCXCXCXCXCXCXCXCXCXCXCXCXCXCXCXCXCXCXCX",
"CXCXCXCXCXCXCXCXCXCXCXCXCXCXCXCXCXCXCXCXCXCXCXzXtXjXiXpXaXjXmXfX<X:.d.s.W.E.{.CXCXCXCXCXCXCXCXCXCXCXCXCXCXCXCXCXCXCXCXCX",
"CXCXCXCXCXCXCXCXCXCXCXCXCXCXCXCXCXCXCXCXCXCXnX6X/.rX0X0XeXxXtX-.:.$.$.%.:.R.}.CXCXCXCXCXCXCXCXCXCXCXCXCXCXCXCXCXCXCXCXCX",
"CXCXCXCXCXCXCXCXCXCXCXCXCXCXCXCXCXCXCXCXCXCXaX~./.wX7X8XaXtX+.| +.e Y T $.=.R.CXCXCXCXCXCXCXCXCXCXCXCXCXCXCXCXCXCXCXCXCX",
"CXCXCXCXCXCXCXCXCXCXCXCXCXCXCXCXCXCXCXCXCXpX[.x.4X8X{.7XeX@.K R | q E U Y Y =._.CXCXCXCXCXCXCXCXCXCXCXCXCXCXCXCXCXCXCXCX",
"CXCXCXCXCXCXCXCXCXCXCXCXCXCXCXCXCXCXCXCXdX&Xb.b.4X{.].eXs.F J J K w + T C Y X.p.CXCXCXCXCXCXCXCXCXCXCXCXCXCXCXCXCXCXCXCX",
"CXCXCXCXCXCXCXCXCXCXCXCXCXCXCXCXCXCXCXCX%XF.l.E.4X}.3XQ.8 8 G J J 0 + B } U U 3.CXCXCXCXCXCXCXCXCXCXCXCXCXCXCXCXCXCXCXCX",
"CXCXCXCXCXCXCXCXCXCXCXCXCXCXCXCXCXCXCX9XF.c.l.^.3X].1Xg 8 8 h g G G 4 4 P L } X.a.CXCXCXCXCXCXCXCXCXCXCXCXCXCXCXCXCXCXCX",
"CXCXCXCXCXCXCXCXCXCXCXCXCXCXCXCXCXCXaX}.l.z.t.1X3XwX .f h 7 M h F J + = B } L } t.CXCXCXCXCXCXCXCXCXCXCXCXCXCXCXCXCXCXCX",
"CXCXCXCXCXCXCXCXCXCXCXCXCXCXCXCXCXCX8Xb.l.z.T.4XwX!.h h h 7 s g f J 4 & =  .~ } 3.CXCXCXCXCXCXCXCXCXCXCXCXCXCXCXCXCXCXCX",
"CXCXCXCXCXCXCXCXCXCXCXCXCXCXCXCXCXzX3X(.b.T.^.rX,XL a i 5 s y c 8 K 7 & $ 0 | } 3.).CXCXCXCXCXCXCXCXCXCXCXCXCXCXCXCXCXCX",
"CXCXCXCXCXCXCXCXCXCXCXCXCXCXCXCXCXuX&X'.~.^.tXrX=.m d 5 5 r y z f K G & 1 1  .....r.CXCXCXCXCXCXCXCXCXCXCXCXCXCXCXCXCXCX",
"CXCXCXCXCXCXCXCXCXCXCXCXCXCXCXCXCX=X%X'.'.qXnX,XJ c i 5 < < t l c { +.* 1 % #.*...w.CXCXCXCXCXCXCXCXCXCXCXCXCXCXCXCXCXCX",
"CXCXCXCXCXCXCXCXCXCXCXCXCXCXCXCXCXCX&X7X2XfXMXW.J c a , ; 1 t j c 1.^.#.C %.C 3 V 3.(.CXCXCXCXCXCXCXCXCXCXCXCXCXCXCXCXCX",
"CXCXCXCXCXCXCXCXCXCXCXCXCXCXCXCXCXCX`.f.g.&.g.t.A c p , $ : < p n r.$.2 t C C N z >.i.CXCXCXCXCXCXCXCXCXCXCXCXCXCXCXCXCX",
"CXCXCXCXCXCXCXCXCXCXCXCXCXCXCXCXCXCX8.X O X o K ( x p , : : , s ( ... % 2 y z V D 2.G.CXCXCXCXCXCXCXCXCXCXCXCXCXCXCXCXCX",
"CXCXCXCXCXCXCXCXCXCXCXCXCXCXCXCXCXCXj.u 6 9 X X o.A k , , : , c 1.r   . % y Z ~ _ u.`.CXCXCXCXCXCXCXCXCXCXCXCXCXCXCXCXCX",
"CXCXCXCXCXCXCXCXCXCXCXCXCXCXCXCXCXCXj.a i 6 6 X E 1.x p s r s ! D @ # ; * r Z _ 2.u.CXCXCXCXCXCXCXCXCXCXCXCXCXCXCXCXCXCX",
"CXCXCXCXCXCXCXCXCXCXCXCXCXCXCXCXCXCXj.d a a i 6 O e.( x s p x ,.< @ - > p x v ^ u.Z.CXCXCXCXCXCXCXCXCXCXCXCXCXCXCXCXCXCX",
"CXCXCXCXCXCXCXCXCXCXCXCXCXCXCXCXCXCXx.b b x a x , R 0.S S S .. .@ # - > j ^ <./ <.K.CXCXCXCXCXCXCXCXCXCXCXCXCXCXCXCXCXCX",
"CXCXCXCXCXCXCXCXCXCXCXCXCXCXCXCXCXCXx.! b d A S S u @.7.( ) w.N # # - t S A <.y.5.H.CXCXCXCXCXCXCXCXCXCXCXCXCXCXCXCXCXCX",
"CXCXCXCXCXCXCXCXCXCXCXCXCXCXCXCXCXCXm.Q F Q ^ W S S ~ 0.1.M.| @ ; - r j A / ] 9.N.Y.CXCXCXCXCXCXCXCXCXCXCXCXCXCXCXCXCXCX",
"CXCXCXCXCXCXCXCXCXCXCXCXCXCXCXCXCXCXI.O.' ' / / ) ) S w.D.b.1 # - > p S W ` 4.9.L.9XCXCXCXCXCXCXCXCXCXCXCXCXCXCXCXCXCXCX",
"CXCXCXCXCXCXCXCXCXCXCXCXCXCXCXCXCXCXXXk.8.4.o.' [ ) ,.D I.| # - > r k S / ' 6.H.`.CXCXCXCXCXCXCXCXCXCXCXCXCXCXCXCXCXCXCX",
"CXCXCXCXCXCXCXCXCXCXCXCXCXCXCXCXCXCXOX|.j.6.5.5.<.7.<.,.+.1 - > r j A Q ' 6.B.F.G.CXCXCXCXCXCXCXCXCXCXCXCXCXCXCXCXCXCXCX",
"CXCXCXCXCXCXCXCXCXCXCXCXCXCXCXCXCXCXCXOX Xk.8.o.6.7.9.<.~ t > u a b Q ` 4.B.S.u.CXCXCXCXCXCXCXCXCXCXCXCXCXCXCXCXCXCXCXCX",
"CXCXCXCXCXCXCXCXCXCXCXCXCXCXCXCXCXCXCXCX+XK.M.c.e.8.M.(.<.S u a A Q ' 5.B.F.V..XCXCXCXCXCXCXCXCXCXCXCXCXCXCXCXCXCXCXCXCX",
"CXCXCXCXCXCXCXCXCXCXCXCXCXCXCXCXCXCXCXCXCXOXL.C.V.D.eXnXS.<.! b Q ' 5.v.Y.J.oXCXCXCXCXCXCXCXCXCXCXCXCXCXCXCXCXCXCXCXCXCX",
"CXCXCXCXCXCXCXCXCXCXCXCXCXCXCXCXCXCXCXCXCXCX+X|.J.C.&XbX#Xu.6.' o.9.H.I. X*X:XCXCXCXCXCXCXCXCXCXCXCXCXCXCXCXCXCXCXCXCXCX",
"CXCXCXCXCXCXCXCXCXCXCXCXCXCXCXCXCXCXCXCXCXCXCX=XXXK.K.#X%XY.A.h.N..X#X@XuXyXCXCXCXCXCXCXCXCXCXCXCXCXCXCXCXCXCXCXCXCXCXCX",
"CXCXCXCXCXCXCXCXCXCXCXCXCXCXCXCXCXCXCXCXCXCXCXCX=XoXU.U.L.$XU. X$XuXuXyXCXCXCXCXCXCXCXCXCXCXCXCXCXCXCXCXCXCXCXCXCXCXCXCX",
"CXCXCXCXCXCXCXCXCXCXCXCXCXCXCXCXCXCXCXCXCXCXCXCXCX;X*X@X|. XdXlXsXsXdXCXCXCXCXCXCXCXCXCXCXCXCXCXCXCXCXCXCXCXCXCXCXCXCXCX",
"CXCXCXCXCXCXCXCXCXCXCXCXCXCXCXCXCXCXCXCXCXCXCXCXCXCX:X:XXX|.lXzXsXlXCXCXCXCXCXCXCXCXCXCXCXCXCXCXCXCXCXCXCXCXCXCXCXCXCXCX",
"CXCXCXCXCXCXCXCXCXCXCXCXCXCXCXCXCXCXCXCXCXCXCXCXCXCXCXyX;XOXlXlXCXCXCXCXCXCXCXCXCXCXCXCXCXCXCXCXCXCXCXCXCXCXCXCXCXCXCXCX",
"CXCXCXCXCXCXCXCXCXCXCXCXCXCXCXCXCXCXCXCXCXCXCXCXCXCXCXCX:X:XkXCXCXCXCXCXCXCXCXCXCXCXCXCXCXCXCXCXCXCXCXCXCXCXCXCXCXCXCXCX",
"CXCXCXCXCXCXCXCXCXCXCXCXCXCXCXCXCXCXCXCXCXCXCXCXCXCXCXCXCXCXCXCXCXCXCXCXCXCXCXCXCXCXCXCXCXCXCXCXCXCXCXCXCXCXCXCXCXCXCXCX",
"CXCXCXCXCXCXCXCXCXCXCXCXCXCXCXCXCXCXCXCXCXCXCXCXCXCXCXCXCXCXCXCXCXCXCXCXCXCXCXCXCXCXCXCXCXCXCXCXCXCXCXCXCXCXCXCXCXCXCXCX",
"CXCXCXCXCXCXCXCXCXCXCXCXCXCXCXCXCXCXCXCXCXCXCXCXCXCXCXCXCXCXCXCXCXCXCXCXCXCXCXCXCXCXCXCXCXCXCXCXCXCXCXCXCXCXCXCXCXCXCXCX",
"CXCXCXCXCXCXCXCXCXCXCXCXCXCXCXCXCXCXCXCXCXCXCXCXCXCXCXCXCXCXCXCXCXCXCXCXCXCXCXCXCXCXCXCXCXCXCXCXCXCXCXCXCXCXCXCXCXCXCXCX",
"CXCXCXCXCXCXCXCXCXCXCXCXCXCXCXCXCXCXCXCXCXCXCXCXCXCXCXCXCXCXCXCXCXCXCXCXCXCXCXCXCXCXCXCXCXCXCXCXCXCXCXCXCXCXCXCXCXCXCXCX",
"CXCXCXCXCXCXCXCXCXCXCXCXCXCXCXCXCXCXCXCXCXCXCXCXCXCXCXCXCXCXCXCXCXCXCXCXCXCXCXCXCXCXCXCXCXCXCXCXCXCXCXCXCXCXCXCXCXCXCXCX",
"CXCXCXCXCXCXCXCXCXCXCXCXCXCXCXCXCXCXCXCXCXCXCXCXCXCXCXCXCXCXCXCXCXCXCXCXCXCXCXCXCXCXCXCXCXCXCXCXCXCXCXCXCXCXCXCXCXCXCXCX",
"CXCXCXCXCXCXCXCXCXCXCXCXCXCXCXCXCXCXCXCXCXCXCXCXCXCXCXCXCXCXCXCXCXCXCXCXCXCXCXCXCXCXCXCXCXCXCXCXCXCXCXCXCXCXCXCXCXCXCXCX",
"CXCXCXCXCXCXCXCXCXCXCXCXCXCXCXCXCXCXCXCXCXCXCXCXCXCXCXCXCXCXCXCXCXCXCXCXCXCXCXCXCXCXCXCXCXCXCXCXCXCXCXCXCXCXCXCXCXCXCXCX"
};
