/* XPM */
static char *result[] = {
/* columns rows colors chars-per-pixel */
"60 60 233 2 ",
"   c #193B00",
".  c #343807",
"X  c #383715",
"o  c #2F2F0F",
"O  c #393225",
"+  c #453627",
"@  c #4B3934",
"#  c #533E3C",
"$  c #244400",
"%  c #2B4602",
"&  c #2B4A02",
"*  c #2F4A0A",
"=  c #354B03",
"-  c #3A4E01",
";  c #3B430B",
":  c #374608",
">  c #2D5403",
",  c #325302",
"<  c #3C5C04",
"1  c #355A04",
"2  c #374415",
"3  c #3E5110",
"4  c #3D6303",
"5  c #3B6603",
"6  c #3B4E25",
"7  c #435D0B",
"8  c #485704",
"9  c #464916",
"0  c #51560E",
"q  c #446403",
"w  c #446B02",
"e  c #4B6E03",
"r  c #48680C",
"t  c #4A7703",
"y  c #577804",
"u  c #506815",
"i  c #617D07",
"p  c #686D1E",
"a  c #52532A",
"s  c #514D2C",
"d  c #51682A",
"f  c #636A37",
"g  c #3B3D4A",
"h  c #493E4B",
"j  c #394859",
"k  c #365769",
"l  c #295A77",
"z  c #314C65",
"x  c #3E646A",
"c  c #346675",
"v  c #2B6276",
"b  c #574546",
"n  c #454654",
"m  c #574C55",
"M  c #585556",
"N  c #484F50",
"B  c #665A5B",
"V  c #614E4F",
"C  c #526147",
"Z  c #6C6B53",
"A  c #475666",
"S  c #575763",
"D  c #555E74",
"F  c #655B64",
"G  c #416C75",
"H  c #596674",
"J  c #4F7172",
"K  c #6A6467",
"L  c #746C6B",
"P  c #7A6867",
"I  c #686977",
"U  c #7B6E72",
"Y  c #776D76",
"T  c #69787A",
"R  c #7C7473",
"E  c #75737C",
"W  c #7D737C",
"Q  c #787A7A",
"!  c #737466",
"~  c #82777C",
"^  c #847878",
"/  c #89726E",
"(  c #4B8001",
")  c #578501",
"_  c #5A9500",
"`  c #688C02",
"'  c #689801",
"]  c #78990A",
"[  c #6B9718",
"{  c #7BA807",
"}  c #74A919",
"|  c #6C9231",
" . c #769051",
".. c #798D6E",
"X. c #85AA05",
"o. c #95BB03",
"O. c #8AB204",
"+. c #A0BC12",
"@. c #9ABA20",
"#. c #97C201",
"$. c #A4C804",
"%. c #ACD003",
"&. c #B4D408",
"*. c #B4D10B",
"=. c #9DC03D",
"-. c #B0D02C",
";. c #80874E",
":. c #97AD4B",
">. c #87996A",
",. c #86877C",
"<. c #93B071",
"1. c #A5BF74",
"2. c #ABB85D",
"3. c #ABC642",
"4. c #C9DA61",
"5. c #1F7E94",
"6. c #266884",
"7. c #267589",
"8. c #347683",
"9. c #247B98",
"0. c #266D90",
"q. c #4A7D81",
"w. c #466281",
"e. c #797985",
"r. c #7B7C91",
"t. c #6B7682",
"y. c #847B82",
"u. c #887E87",
"i. c #917F86",
"p. c #2A859C",
"a. c #328590",
"s. c #258EB1",
"d. c #278CA8",
"f. c #758EAE",
"g. c #74979E",
"h. c #898887",
"j. c #938988",
"k. c #8D9286",
"l. c #949183",
"z. c #98978B",
"x. c #8B8C9B",
"c. c #898B95",
"v. c #938C94",
"b. c #948B98",
"n. c #8D9397",
"m. c #979699",
"M. c #A09B88",
"N. c #A48D98",
"B. c #A79899",
"V. c #A78A8E",
"C. c #8FA286",
"Z. c #9CA39A",
"A. c #A5A39B",
"S. c #A8A59A",
"D. c #B0B48D",
"F. c #8992A7",
"G. c #9C9CAB",
"H. c #9895A4",
"J. c #969FB6",
"K. c #A59DA7",
"L. c #B29BA4",
"P. c #B99EB1",
"I. c #9BA4B6",
"U. c #93A5B4",
"Y. c #A7A7A8",
"T. c #B4A9AB",
"R. c #A7A8B5",
"E. c #B6AAB9",
"W. c #ACB3B8",
"Q. c #B4B9B6",
"!. c #AFB7AB",
"~. c #BBCC9F",
"^. c #B9C1BC",
"/. c #BEC8A5",
"(. c #C5CFB0",
"). c #DCEBA0",
"_. c #E4F0B9",
"`. c #809EC6",
"'. c #ABAEC1",
"]. c #B9A9C3",
"[. c #A9B7C8",
"{. c #B6BBC6",
"}. c #B7B8C8",
"|. c #ACBAD5",
" X c #B1BCD9",
".X c #98AFC1",
"XX c #C7BED3",
"oX c #C3B4C8",
"OX c #B3C2CD",
"+X c #B2C8CA",
"@X c #A8C5D5",
"#X c #BAC7D7",
"$X c #B5CCCD",
"%X c #BCCBE4",
"&X c #B7C7E3",
"*X c #BCD7EA",
"=X c #B8CDF1",
"-X c #B9D2F4",
";X c #B7E1F0",
":X c #C5C7C6",
">X c #C8C7D9",
",X c #CBD5D8",
"<X c #D3D8D6",
"1X c #CBD3CC",
"2X c #C9CBE7",
"3X c #C3D3E5",
"4X c #C4D4EB",
"5X c #C9D8EC",
"6X c #D6DBEA",
"7X c #C4DAF2",
"8X c #CBDCF2",
"9X c #C2DBF6",
"0X c #D6DCF8",
"qX c #D6CCF0",
"wX c #E3DCFC",
"eX c #E6DFF0",
"rX c #E2DDEB",
"tX c #D8E9EC",
"yX c #CAE5F9",
"uX c #D2E3FA",
"iX c #DBEDFD",
"pX c #D8E7F6",
"aX c #D4EBF3",
"sX c #E3E5EB",
"dX c #E7F4EA",
"fX c #E4EAFB",
"gX c #EAE8FA",
"hX c #EEF3FE",
"jX c #F3F3FE",
"kX c #FAFAFC",
"lX c #F0EFFF",
"zX c #D9E3CF",
"xX c None",
/* pixels */
"xXxXxXxXxXxXxXxXxXxXxXxXxXxXxXxXxXxXxXxXxXxXxXxXxXxXxXxXxXxXxXxXxXxXxXxXxXxXxXxXxXxXxXxXxXxXxXxXxXxXxXxXxXxXxXxXxXxXxXxX",
"xXxXxXxXxXxXxXxXxXxXxXxXxXxXxXxXxXxXxXxXxXxXxXxXxXxXxXxXxXxXxXxXxXxXxXxXxXxXxXxXxXxXxXxXxXxXxXxXxXxXxXxXxXxXxXxXxXxXxXxX",
"xXxXxXxXxXxXxXxXxXxXxXxXxXxXxXxXxXxXxXxXxXxXxXxXxXxXxXxXxXxXxXxXxXxXxXxXxXxXxXxXxXxXxXxXxXxXxXxXxXxXxXxXxXxXxXxXxXxXxXxX",
"xXxXxXxXxXxXxXxXxXxXxXxXxXxXxXxXxXxXxXxXxXxXxXxXxXxXxXxXxXxXxXxXxXxXxXxXxXxXxXxXxXxXxXxXxXxXxXxXxXxXxXxXxXxXxXxXxXxXxXxX",
"xXxXxXxXxXxXxXxXxXxXxXxXxXxXxXxXxXxXxXxXxXxXxXxXxXxXxXxXxXxXxXxXxXxXxXxXxXxXxXxXxXxXxXxXxXxXxXxXxXxXxXxXxXxXxXxXxXxXxXxX",
"xXxXxXxXxXxXxXxXxXxXxXxXxXxXxXxXxXxXxXxXxXxXxXxXxXxXxXxXxXxXxXxXxXxXxXxXxXxXxXxXxXxXxXxXxXxXxXxXxXxXxXxXxXxXxXxXxXxXxXxX",
"xXxXxXxXxXxXxXxXxXxXxXxXxXxXxXxXxXxXxXxXxXxXxXxXxXxXxXxXxXxXxXxXxXxXxXxXxXxXxXxXxXxXxXxXxXxXxXxXxXxXxXxXxXxXxXxXxXxXxXxX",
"xXxXxXxXxXxXxXxXxXxXxXxXxXxXxXxXxXxXxXxXxXxXxXxXxXxXxXxXxXxXxXxXxXxXxXxXxXxXxXxXxXxXxXxXxXxXxXxXxXxXxXxXxXxXxXxXxXxXxXxX",
"xXxXxXxXxXxXxXxXxXxXxXxXxXxXxXxXxXxXxXxXxXxXxXxXxXxXxXdXpXtXpXtXiXxXxXxXxXxXxXxXxXxXxXxXxXxXxXxXxXxXxXxXxXxXxXxXxXxXxXxX",
"xXxXxXxXxXxXxXxXxXxXxXxXxXxXxXxXxXxXxXxXxXxXxXdX<X:X,X,X4XyX6X#X%XfXdXxXxXxXxXxXxXxXxXxXxXxXxXxXxXxXxXxXxXxXxXxXxXxXxXxX",
"xXxXxXxXxXxXxXxXxXxXxXxXxXxXxXxXxXxXxXxXxX,X$X#X}.{.OX#X3X#X0X3XJ.uXpXdXxXxXxXxXxXxXxXxXxXxXxXxXxXxXxXxXxXxXxXxXxXxXxXxX",
"xXxXxXxXxXxXxXxXxXxXxXxXxXxXxXxXxXxXxX1X#X@XOX@XOXOXOX#X4XI.#X[.F.iX4X8XdXxXxXxXxXxXxXxXxXxXxXxXxXxXxXxXxXxXxXxXxXxXxXxX",
"xXxXxXxXxXxXxXxXxXxXxXxXxXxXxXxXxXxX,XOX[.OX[.W.OX#X3XyXuX,Xx.r.%XuX5X8XyXsXxXxXxXxXxXxXxXxXxXxXxXxXxXxXxXxXxXxXxXxXxXxX",
"xXxXxXxXxXxXxXxXxXxXxXxXxXxXxXxXxX,X{.W.n.[.Q.E.Y.Y.m.,.! K I.uXuXyXuXuXuXuXtXxXxXxXxXxXxXxXxXxXxXxXxXxXxXxXxXxXxXxXxXxX",
"xXxXxXxXxXxXxXxXxXxXxXxXxXxXxXxXxXQ.R.OXe.W.h.Z a 9 X X o O O c.iXyXuXuXuXuXaXtXxXxXxXxXxXxXxXxXxXxXxXxXxXxXxXxXxXxXxXxX",
"xXxXxXxXxXxXxXxXxXxXxXxXxXxXxXxXxXQ.E g.e.s ; ; ; 2 2 3 8 7 < o e.iXuXuXuX0XiXg.$XxXxXxXxXxXxXxXxXxXxXxXxXxXxXxXxXxXxXxX",
"xXxXxXxXxXxXxXxXxXxXxXxXxXxXxXxXxXQ.m.v.h.+ * * > 5 4 e e w e e . K aX8X9XiXG.x.fXaXxXxXxXxXxXxXxXxXxXxXxXxXxXxXxXxXxXxX",
"xXxXxXxXxXxXxXxXxXxXxXxXxXxXxXxX1X!.!.!.! O & 1 5 5 7 e y y y ) y % B *X9X7Xu.tX8X8XaXxXxXxXxXxXxXxXxXxXxXxXxXxXxXxXxXxX",
"xXxXxXxXxXxXxXxXxXxXxXxXxXxXxXxX$XY.Y.Y.B 2 > 5 5 ) { { =.3.#.#.X.` . m yX[.{.uX8X8X7XtXxXxXxXxXxXxXxXxXxXxXxXxXxXxXxXxX",
"xXxXxXxXxXxXxXxXxXxXxXxXxXxXxXxX^.S.S.Z.b * 5 _ } =.#.#.).kX_.-.%.+.i ; F Q.8X8X8X4X7X*XxXxXxXxXxXxXxXxXxXxXxXxXxXxXxXxX",
"xXxXxXxXxXxXxXxXxXxXxXxXxXxXxXxX/.m.A.k.@ * ( } zXkX3.-.dXkXkXD.*.*.+.` ; h.iX9X7X7X*X7X*XxXxXxXxXxXxXxXxXxXxXxXxXxXxXxX",
"xXxXxXxXxXxXxXxXxXxXxXxXxXxXxXxX!.z.B.,.+ 3 _ ~.gXwXeXdXkXjXrXf $.*.*.o.y 9 m.yXyXiX3X X%X*XxXxXxXxXxXxXxXxXxXxXxXxXxXxX",
"xXxXxXxXxXxXxXxXxXxXxXxXxXxXxXxXA.M.B.P O 5 [ <XwXwXwXfXgXjXrX0 X.%.*.$.O.y 9 W.yX*X>X}..X;XxXxXxXxXxXxXxXxXxXxXxXxXxXxX",
"xXxXxXxXxXxXxXxXxXxXxXxXxXxXxXxXz.l.z.B X 5 ' 1.wXwXfXkXhXgXjXT.2.4.%.$.$.' 8 s 4X[.4X#Xf.@Xg.xXxXxXxXxXxXxXxXxXxXxXxXxX",
"xXxXxXxXxXxXxXxXxXxXxXxXxXxXxXT.z.l.z.V X t ' :.qXwX>XM.>XjXfXjXkXsX@.%.o.O.w d 0X`.f.f.`.[.G xXxXxXxXxXxXxXxXxXxXxXxXxX",
"xXxXxXxXxXxXxXxXxXxXxXxXxXxXxXS.l.l.z.b 2 ( { ~.qXXXp 8 s 6XfXfXjXtX:.$.o.X.t C.0X%Xf.f.-Xh.G xXxXxXxXxXxXxXxXxXxXxXxXxX",
"xXxXxXxXxXxXxXxXxXxXxXxXxXxXxXz.l.l.v.b % | oXXXqXl.8 r q !.fXfXgXgX;.o.o.' [ #X4X2X4X-X|.S G xXxXxXxXxXxXxXxXxXxXxXxXxX",
"xXxXxXxXxXxXxXxXxXxXxXxXxXxXxXz.l.l.c.s & >.oXT.XXV.8 y ` (.0X0XjXrXf o.X.' <.=X&X&X|.&Xx.N 8.xXxXxXxXxXxXxXxXxXxXxXxXxX",
"xXxXxXxXxXxXxXxXxXxXxXxXxXxXxXh.,.l.h.@ $  .T.N.oXT.0 ` -.<X2XwXM.0 0 X.{ [ OX X&X X X|.F A a.xXxXxXxXxXxXxXxXxXxXxXxXxX",
"xXxXxXxXxXxXxXxXxXxXxXxXxXxXxXz.W.v.h.@ $  .P.N.L.oXA.:.(.2XXX>Xs 8 u ] ' 1.4X|.#X X Xc.b G xXxXxXxXxXxXxXxXxXxXxXxXxXxX",
"xXxXxXxXxXxXxXxXxXxXxXxXxXxXxXm.v.c...@ % p f / L.T.XX>X>XoX].S.0 e y ` [ Q.}.|.'.].'.S N a.xXxXxXxXxXxXxXxXxXxXxXxXxXxX",
"xXxXxXxXxXxXxXxXxXxXxXxXxXxXxX..z.W t.@ = t 8 a B.L.E.].E.E.E.E.a i ] _ >.'.K.R.R.|.u.h x xXxXxXxXxXxXxXxXxXxXxXxXxXxXxX",
"xXxXxXxXxXxXxXxXxXxXxXxXxXxXxXS t.S n.M $ t 4 f B.N.L.T.L.K.K.].! ` ` [ R.Y.R.R.H.t.F n c xXxXxXxXxXxXxXxXxXxXxXxXxXxXxX",
"xXxXxXxXxXxXxXxXxXxXxXxXxXxXxXJ S L C.Q * w e >.N.j.v.^ i.N.K.h.s ` t k.K.G.Y.Y.c.F m k xXxXxXxXxXxXxXxXxXxXxXxXxXxXxXxX",
"xXxXxXxXxXxXxXxXxXxXxXxXxXxXxX....h.k.c.6 1 w d i.V.P . s h.~ 9 : w  .G.v.K.K.Y.H.I n 8.xXxXxXxXxXxXxXxXxXxXxXxXxXxXxXxX",
"xXxXxXxXxXxXxXxXxXxXxXxXxXxXxXxXT ^ h.n.C 1 4 q 2 B 9 - - + ; : , r Z.H.m.b.H.K.t.h k xXxXxXxXxXxXxXxXxXxXxXxXxXxXxXxXxX",
"xXxXxXxXxXxXxXxXxXxXxXxXxXxXxXxXq.R ..h.E % < w - . . = q 8 : = , ..G.v.v.j.b.r.h k a.xXxXxXxXxXxXxXxXxXxXxXxXxXxXxXxXxX",
"xXxXxXxXxXxXxXxXxXxXxXxXxXxXxXxX..K W W e.6 , 4 q % : - 7 y q > d n.x.j.v.u.x.S n c xXxXxXxXxXxXxXxXxXxXxXxXxXxXxXxXxXxX",
"xXxXxXxXxXxXxXxXxXxXxXxXxXxXxXxXxXt.^ R e.C & 1 q < q < 7 r q 1 ..G.n.u.y.c.I g k p.xXxXxXxXxXxXxXxXxXxXxXxXxXxXxXxXxXxX",
"xXxXxXxXxXxXxXxXxXxXxXxXxXxXxXxXxXT P R E I * , 1 1 4 < , > r ..G.}.I.R y.e.h j 8.xXxXxXxXxXxXxXxXxXxXxXxXxXxXxXxXxXxXxX",
"xXxXxXxXxXxXxXxXxXxXxXxXxXxXxXxXxXT L R R Q 6 $ , , &   u ,.K.e.x.'.'.I e.S g v xXxXxXxXxXxXxXxXxXxXxXxXxXxXxXxXxXxXxXxX",
"xXxXxXxXxXxXxXxXxXxXxXxXxXxXxXxXxXa.I R R ~ C   $ * d ,.Y.i.e.Y e..XJ.D I g z p.xXxXxXxXxXxXxXxXxXxXxXxXxXxXxXxXxXxXxXxX",
"xXxXxXxXxXxXxXxXxXxXxXxXxXxXxXxXxXxXJ ! L L E C Z k.v.v.e.W / y.F w.w.I n j p.xXxXxXxXxXxXxXxXxXxXxXxXxXxXxXxXxXxXxXxXxX",
"xXxXxXxXxXxXxXxXxXxXxXxXxXxXxXxXxXxXG K K h.e.^ W Q y.y.u.y.Y e.y.F I S j v xXxXxXxXxXxXxXxXxXxXxXxXxXxXxXxXxXxXxXxXxXxX",
"xXxXxXxXxXxXxXxXxXxXxXxXxXxXxXxXxXxXxXS W G.e.K R y.y.y./ P P Y Y y.D g k a.xXxXxXxXxXxXxXxXxXxXxXxXxXxXxXxXxXxXxXxXxXxX",
"xXxXxXxXxXxXxXxXxXxXxXxXxXxXxXxXxXxXxXc E x.e.M ~ y.W P P P P Y I A A l 6.xXxXxXxXxXxXxXxXxXxXxXxXxXxXxXxXxXxXxXxXxXxXxX",
"xXxXxXxXxXxXxXxXxXxXxXxXxXxXxXxXxXxXxXxXA F.I m L U P P U Y H A z z 6.0.xXxXxXxXxXxXxXxXxXxXxXxXxXxXxXxXxXxXxXxXxXxXxXxX",
"xXxXxXxXxXxXxXxXxXxXxXxXxXxXxXxXxXxXxXxXv z n B K B F F A k z z l 6.9.xXxXxXxXxXxXxXxXxXxXxXxXxXxXxXxXxXxXxXxXxXxXxXxXxX",
"xXxXxXxXxXxXxXxXxXxXxXxXxXxXxXxXxXxXxXxXxXG m M S A z l l 6.0.7.5.xXxXxXxXxXxXxXxXxXxXxXxXxXxXxXxXxXxXxXxXxXxXxXxXxXxXxX",
"xXxXxXxXxXxXxXxXxXxXxXxXxXxXxXxXxXxXxXxXxXd.6.6.6.6.0.0.9.9.s.xXxXxXxXxXxXxXxXxXxXxXxXxXxXxXxXxXxXxXxXxXxXxXxXxXxXxXxXxX",
"xXxXxXxXxXxXxXxXxXxXxXxXxXxXxXxXxXxXxXxXxXxXxXs.s.s.s.xXxXxXxXxXxXxXxXxXxXxXxXxXxXxXxXxXxXxXxXxXxXxXxXxXxXxXxXxXxXxXxXxX",
"xXxXxXxXxXxXxXxXxXxXxXxXxXxXxXxXxXxXxXxXxXxXxXxXxXxXxXxXxXxXxXxXxXxXxXxXxXxXxXxXxXxXxXxXxXxXxXxXxXxXxXxXxXxXxXxXxXxXxXxX",
"xXxXxXxXxXxXxXxXxXxXxXxXxXxXxXxXxXxXxXxXxXxXxXxXxXxXxXxXxXxXxXxXxXxXxXxXxXxXxXxXxXxXxXxXxXxXxXxXxXxXxXxXxXxXxXxXxXxXxXxX",
"xXxXxXxXxXxXxXxXxXxXxXxXxXxXxXxXxXxXxXxXxXxXxXxXxXxXxXxXxXxXxXxXxXxXxXxXxXxXxXxXxXxXxXxXxXxXxXxXxXxXxXxXxXxXxXxXxXxXxXxX",
"xXxXxXxXxXxXxXxXxXxXxXxXxXxXxXxXxXxXxXxXxXxXxXxXxXxXxXxXxXxXxXxXxXxXxXxXxXxXxXxXxXxXxXxXxXxXxXxXxXxXxXxXxXxXxXxXxXxXxXxX",
"xXxXxXxXxXxXxXxXxXxXxXxXxXxXxXxXxXxXxXxXxXxXxXxXxXxXxXxXxXxXxXxXxXxXxXxXxXxXxXxXxXxXxXxXxXxXxXxXxXxXxXxXxXxXxXxXxXxXxXxX",
"xXxXxXxXxXxXxXxXxXxXxXxXxXxXxXxXxXxXxXxXxXxXxXxXxXxXxXxXxXxXxXxXxXxXxXxXxXxXxXxXxXxXxXxXxXxXxXxXxXxXxXxXxXxXxXxXxXxXxXxX",
"xXxXxXxXxXxXxXxXxXxXxXxXxXxXxXxXxXxXxXxXxXxXxXxXxXxXxXxXxXxXxXxXxXxXxXxXxXxXxXxXxXxXxXxXxXxXxXxXxXxXxXxXxXxXxXxXxXxXxXxX",
"xXxXxXxXxXxXxXxXxXxXxXxXxXxXxXxXxXxXxXxXxXxXxXxXxXxXxXxXxXxXxXxXxXxXxXxXxXxXxXxXxXxXxXxXxXxXxXxXxXxXxXxXxXxXxXxXxXxXxXxX",
"xXxXxXxXxXxXxXxXxXxXxXxXxXxXxXxXxXxXxXxXxXxXxXxXxXxXxXxXxXxXxXxXxXxXxXxXxXxXxXxXxXxXxXxXxXxXxXxXxXxXxXxXxXxXxXxXxXxXxXxX"
};
