/* XPM */
static char *result[] = {
/* columns rows colors chars-per-pixel */
"60 60 125 2 ",
"   c #767269",
".  c #7A756F",
"X  c #7C7775",
"o  c #7D7974",
"O  c #827D75",
"+  c #837E79",
"@  c #86817B",
"#  c #8A847C",
"$  c #8F897E",
"%  c #908A7F",
"&  c #7B7782",
"*  c #7F7A8A",
"=  c #837E84",
"-  c #807E98",
";  c #858082",
":  c #8A8681",
">  c #8E8A83",
",  c #8A858E",
"<  c #8D8A89",
"1  c #928D83",
"2  c #928E8C",
"3  c #969185",
"4  c #999387",
"5  c #95928A",
"6  c #9B958B",
"7  c #9D988D",
"8  c #8E8C94",
"9  c #85839A",
"0  c #88869D",
"q  c #8D8B9E",
"w  c #918F91",
"e  c #928F9D",
"r  c #969293",
"t  c #9A9693",
"y  c #9D9A92",
"u  c #95929E",
"i  c #9C979D",
"p  c #9E9B9C",
"a  c #A19B8E",
"s  c #A29D94",
"d  c #A29E9B",
"f  c #A5A095",
"g  c #A9A396",
"h  c #A6A29B",
"j  c #AAA59C",
"k  c #ADA99E",
"l  c #B1A99C",
"z  c #8E8CA1",
"x  c #918EA1",
"c  c #9592A3",
"v  c #9996A4",
"b  c #9D9AA5",
"n  c #9794A9",
"m  c #9A97A8",
"M  c #9D9AAA",
"N  c #A29EA3",
"B  c #A19EAC",
"V  c #A5A2A4",
"C  c #AAA5A2",
"Z  c #ADAAA3",
"A  c #A5A2AD",
"S  c #A9A6AD",
"D  c #ADAAAD",
"F  c #B2ADA4",
"G  c #B8AFA2",
"H  c #B1ADAB",
"J  c #B5B0A5",
"K  c #BAB3A5",
"L  c #B5B1AC",
"P  c #BAB5AC",
"I  c #BDB9AD",
"U  c #A6A3B1",
"Y  c #A9A6B1",
"T  c #ADAAB2",
"R  c #ADABB8",
"E  c #B1AEB4",
"W  c #B1AEB8",
"Q  c #B5B2B5",
"!  c #B9B5B4",
"~  c #BDBAB4",
"^  c #B5B2B9",
"/  c #B9B6B9",
"(  c #BDBABB",
")  c #C1BBAE",
"_  c #C2BDB4",
"`  c #C2BEBC",
"'  c #C5C1B6",
"]  c #CAC4B7",
"[  c #C5C2BD",
"{  c #C9C5BC",
"}  c #CDC9BD",
"|  c #D0CBBE",
" . c #B8B6C1",
".. c #BDBAC2",
"X. c #BEBDCA",
"o. c #C0BDC1",
"O. c #C5C2C2",
"+. c #CAC6C2",
"@. c #CDCAC3",
"#. c #C6C3CA",
"$. c #C8C5CB",
"%. c #CCCACB",
"&. c #D2CEC4",
"*. c #D2CFCA",
"=. c #D6D2C6",
"-. c #D8D4C7",
";. c #D6D2C9",
":. c #D9D5C9",
">. c #DDD9CB",
",. c #CDCBD2",
"<. c #D5D3D4",
"1. c #D9D6D2",
"2. c #DCDBD5",
"3. c #D7D6D8",
"4. c #DDDCDB",
"5. c #E1DCCD",
"6. c #E1DED6",
"7. c #E0DFDC",
"8. c #E4E0CE",
"9. c #E4E3DD",
"0. c #E9E6DD",
"q. c #E5E4E0",
"w. c #ECEAE3",
"e. c #F1EFE5",
"r. c #F4F3E9",
/* pixels */
"@ 1 _ { D } [ A =.:.:.:.:.:.>.@.Q [ 5.0.9.1.~ h 3 $ 1 s g 6 : 6 s 3 5 1 y P @.9.9.<.E ( *.:.>.:.:.:.-.-.5.B B O.&.&.l @ ",
"j @ 5 ' { } +.A =.:.:.:.>.:.+.A *.e.2.! s 1 7 , p H m U +.l 1 P u q V D * y 6 7 J ;.w.1.T T ( :.;.-.-.[ E S &.5.| J @ $ ",
"[ l o 1 ' { S A ( =.=.@.( Q @.9.;.Z 1 a F Q E U +.&.T T U G 5 S 0 A ( :.U M Q D l 1 6 @.q.$.B ! >.-.>.A m E =.&.J o > ) ",
"=.} k @ 5 ' ' { S R ^ T ^ w.9.Z > g [ { ( ^ E +.:.:.=.*.^ h 5 u E :.:.:.&.E ^ ( [ { L 6 y ;.$.Y &.{ ` @.E O.&.K @ > I ' ",
"( >.&.J @ 6 ' { T Q T  .w.` # s ! E ` ( :.>.>.:.:.:.&.T ^ j y v c / >.-.>.>.:.:.[ ` ( E F # s 4.#.m E #.^ A I @ < ' ] ~ ",
"Y :.:.@.K @ 5 _ V S +.4.h 1 u W U [ >.>.:.:.:.:.=.>.@.B $.K 6 _ z T >.:.:.:.:.;.:.>.&.Y Y m , 1 [ ,.Y B O.I # 1 ' ' } =.",
"v A ^ @.D F @ 5 } 9.1.5 5 ! +.` @.:.:.:.:.:.:.:.:.:.>.( @.I y ` A =.:.=.:.:.:.:.:.=.:.=.` { O.p # L q.:.) # 5 _ { D ! [ ",
":.E M E Y { K @ h [ 1 j A ^ -.>.>.:.:.-.:.:.:.:.:.:.:./ =.I y } T &.:.:.:.:.:.:.-.:.=.:.>.-.` B D 4 C { # 5 ~ _ { T T A ",
":.[ v ( $.U @.{ @ + J A A [ :.:.:.:.:.=.=.:.=.-.:.=.>.` ` I 6 ! Q :.:.:.:.:.:.:.:.:.:.=.-.>.@.^ Y &.6 + f :.A A A T :.:.",
"-.-.:.} ( M 4.+.1 # f S v [ { :.:.:.:.-.=.:.=.-.=.:.>.^ ^ _ s Q M =.:.:.:.:.:.:.:.:.:.:.:.@.+.( E _ 1 @ s e.Q Q Q +.>.:.",
":.-.=.[ M ^ ;.1 ] ) > h v c m { >.:.:.:.:.:.-.-.=.:.:.O.^ C 5 b R -.:.:.:.:.-.-.:.:.-.:.:.M T U P < s I 4 H 4.D Q +.:.:.",
":.-.:.:./ <.> C ^ T ) @ 5 ~ B ( :.:.:.&.:.:.-.-.:.:.:.:.$.H 6 T =.-.:.:.-.:.=.:.:.:.-.-.[ ^ %.P O f H c D 1 [ <.A O.>.:.",
":.>.+.Y 7.h 5 M T / R Z 3 h ' T ( 5.:.-.-.-.-.>.>.&.:.[ T L y b Q =.@.;.>.:.:.:.:.:.>.+.T >.{ 3 s c S A A N 1 7.*.Q :.:.",
":.+.M ^ / @ ( ( ` &.U +.{ > f [ A ^ =.-.-.:.:.+./ M Q /  .{ Z #.W ( c A [ :.>.>.:.:.( A @.] # f _ b Q =.( [ t 2 r.( +.>.",
":.^ / 9.> 8 ` :.:.&.M T :.| 3 j Q m +.:.-.( Q Q %.1.%.$.@.L y [ *.$.3.%.( D A +.>.>.M Q { 5 h ' M M / :.-.&.A @ ~ 9.( :.",
":.D 4.J f T Q :.-.:.=.[ E *.} a p v [ @.@.A $.w.;.Z 7 6 7 6 # 6 1 3 j [ 9.<.M Q =.+.^ D 7 k { T ( =.-.:.>.@.Y P 3 9.R ! ",
"[ @.4.3 Q A +.:.:.:.:.-.[ T ^ ! > f A c Q ,.$.7 6 j ~ ~ E _ s Y D N Z s 3 ) <. .v m Q 3 r E M [ >.>.>.-.>.;.E E 7 L 0._ ",
"T 0.Z g ( [ :.:.-.:.:.:.>.+.c U ! 7 p ..3.F 4 J { +./ ^ ^ ! t Y @.A A Q ! : > *.,.Q a d A M ! >.-.;.;.>.;.>.;.Q _ 1 9.>.",
"+.7.1 ' ( :.:.-.:.:.:.:.:.:.-.=.Y D f ' 7 6 ( ^ ! [ =.>.+._ 6 +.-.-.&.( v U d > ~ F C m [ :.-.=.;.>.-.;.>.-.>.` ` a / 0.",
"2.[ a @.( :.:.:.:.:.:.:.:.:.:.:.M R 1.. y ! c ! :.>.;.:.=.[ t o.>.:.:.:.+.{ Y P   C 1.v +.-.-.-.&.-.>.&.-.;.>.&.E ) 5 w.",
"q.h k / :.:.:.:.:.:.:.:.:.:.=.[ Q 3.7 k k f A +.>.=.:.:.=.~ h o.>.-.:.-.5.+.E j F 1 @.#.~ @.>.-.-.-.:.;.:.>.;.-.` Q 1 ;.",
"2.6 L R :.:.:.:.:.:.:.-.:.>.( 0 ,.C < U R h Z ( :.:.-.:.=.` h +.>.;.:.>.` E g V Y C 4 <.Y T :.-.;.>.:.-.:.:.:.5.[ T s Z ",
"+.7 A U >.:.:.:.:.:.:.:.:.:.! ..1.@ b [ ` ( h P O.:.=.:.-.{ L &.:.-.>.+.E h H Y b / j C 4.T &.:.-.-.-.-.:.:.;.5.{ U Z 5 ",
"Z & M +.:.:.=.:.:.:.:.=.:.=.D w.s Z A ! 8.+.R F H @.:.=.:.[ D =.-.>.&.` Z P [ &.&.Q _ 1 2.+.( >.-.&.-.-.-.>.;.;.;.( c + ",
"6 N &.>.=.;.-.;.:.:.:.:.:.Q ( 2.3 ` E -.;.>.+.{ I ~ &.:.-.} H =.:.:.[ F ~ O.>.:.>.[ &.j J 4.D =.;.;.-.:.:.:.:.=.;.:.! 4 ",
"1 V ` -.>.5.;.>.:.:.:.>.:.m $.I s S ` >.:.:.>.-.+.L ! >.:.{ ~ :.:.O.Z ~ =.-.&.-.:.@.( P t 4.A O.>.-.:.:.:.:.>.>.:.+.T 5 ",
"1 c B &.{ E -.;.:.:.:.:.:.~ #.p t B } >.;.>.-.-.:.@.D ! 5.&.` 5.} Z [ ;.>.-.-.-.;.>.( [ 7 O./ -.-.;.-.:.=.=.` / :./ M r ",
"6 u - ! M q A E E A T :.` Y ,.7 N O.=.-.>.>.:.:.:.>.&.L / ` ! @.! { >.;.;.;.>.>.-.-.! R 6 [ ..E &.[ U Q ^ / Y R o.E U L ",
"4 P b v e _ / } ~ E B A A E 1.4 D U O.` / *.&.;.:.;.>.:.D ` ` T ( 5.:.=.;.*.*.@.=.$.( o.f ~ <.T $.^ [ $.:.:.*.` A ! [ I ",
"@ > 6 5 5 y s s 7 s y y s Z Z + s s s t d j L H P ~ [ ` ( 1.9.@.! { _ ~ P ~ P F J F Z J 3 r L k j y g f j s g s 7 6 6 1 ",
"6 j G j j I P P K I H Z H ~ _ 1 ) P ! _ _ ` { { { &.@.[ ! <.1./ ` &.{ ~ ! ! H V d N p p 3 y [ y d r h k F J F d w h j 2 ",
"a @.E W E +.$.&.$./ W O.^ R <.a E ^ o.*.=.*.=.:.:.-.>.@.H / ( S ( >.>.>.:.:.;.*.@.:.[ R 6 [ #.M / A A T ` ~ H B u v b K ",
"6 A U &.^ B ^ Q ` Q / :.} Q *.6 L E =.-.:.:.:.:.:.>.@.H @.@.! &.P ! ;.:.:.-.-.:.>.-.O.E : +...` -.+.T [ ! Q M 0 [ A 9 p ",
"% N U &.&.` 5.>.>.>.>.;.>.Q #.j F ( &.-.-.-.-.:.=.` C ` 5.@.[ >.=.L Q &.:.;.;.:.;.:.A N 1 %.E @.:.:.>.>.>.>.@.+.>.Q c 2 ",
"1 C @.:.>.>.;.;.;.-.;.;.;.B #.` 7 @.( =.:.-.:.*._ F ( :.>.[ [ :.>.@.J ( @.>.:.:.:.-.E G f 4.v ` :.:.:.:.:.:.:.:.:.:./ 6 ",
"t r O.:.-.-.>.>.;.-.-.-.>.` ( 9.3 ' ^ =.>.>.@.L F [ :.:.:.' ~ :.:.>.{ P ~ ( &.:.:.E ! s ` 1.E :.;.:.:.:.:.:.:.:.>.&.A > ",
"L = B ` 5.;.-.;.-.&.-.-.:.-.E 9.F f o.Q } ( ! k ( &.:.-.:.~ I =.:.:.:.( C Z ^ :.=.M Z 4 9.Q ` >.=.:.:.:.:.-.:.:.&.U e # ",
"@.6 Q T :.>.>.:.:.-.-.;.;.>.` Q 2.3 I M M S f D [ >.:.-.:.~ ~ *.-.-.:.=.` Z Z ( T ^ X [ %.v >.:.:.=.:.:.:.:.-.>.` B F d ",
"9.1 H W >.;.;.:.:.;.;.;.-.>.{ B #.o.$ Q V f ~ +.:.:.:.:.:.L H @.:.-.-.>.@.T f h R t f ,.c U >.=.:.=.:.:.:.:.:.:.O.Y a ~ ",
"7.j k ( &.>.>.-.:.:.-.-.-.;.-.&.Q <.F 4 j D R 5.:.:.:.:.@.N F &.:.:.=.:.:.Y A h f 6 <.R +.:.:.:.:.:.:.:.:.:.-.:.O._ 4 7.",
"8.+.4 { ^ >.:.:.-.-.:.-.&.-.:.-.B Y 1.o 7 T ^ / } >.>.>.&.b Z *.-.:.:.-.[ A U k   C ;.z [ >.>.:.:.:.:.:.:.:.:.+.! K s e.",
":.0.5 I [ :.:.>.:.:.:.-.:.-.+.{ A d 7 ;.F $ p B Y ` [ @.=.C j O.+.-.( ( ( { 7 5 1.J f R O.[ @.>.:.:.:.:.:.:.>.[ +.3 +.2.",
"( w.~ 7 Q ^ :.:.:.:.:.;.>.[ m m d 7 D Y ,.[ : y _ ! v ( ^ p k ( R ( [ | k 3 j 3./ D y j T M M :.:.-.-.:.=.:.+.R J 5 e.( ",
"! +.4.3 L U [ >.;.:.>.>.` S E Z > D / M Q  .7.P 4 7 t i S h j ~ Z K s < f ;.3.^ T M S < s @.^ T +.:.:.:.-.=.A ! 5 @.,.~ ",
":.A 4.~ 4 Q ^ :.:.:.[ ( E { Z 4 ~ A @.:.;.q A 9.9.@.j t 7 # # 6 y f ! 2.0.+.M ( :.-.S S y h >.+.^ ( =.:.:.+.U j y q.T @.",
">.@.O.w.5 , [ :.-.&.M b ~ k $ ' O.c +.:.:.[ ( A ^ O.#.%.3.[ Z 2.,.%.#...T ^ +.&.-.-.T M ' 5 7 -.( M Q :.=.&.n o @.#.A =.",
":.>.! 6.1.$ D ^ ( } c Q k @ ' :.T ` :.:.:.>.>.:.+.B E ^ B L Z / A [ A ( =.:.:.:.-.-.=.T ! ' 5 7 =.T o.+.D E 6 Z X.b o.>.",
":.:.+.T 9.I > A A x b 2 3 ' :.^ ( >.:.:.:.-.:.:.:.:.>.} E V j ( ( :.:.:.-.-.=.=.=.-.:.:.T L ~ y 4 D ^ U U r 1 7.( @.>.;.",
":.:.-.T Q 4.h y D V k @ j O.Y o.>.-.-.>.-.-.-.;.:.:.:.>./ p s ( -.-.-.:.=.=.:.:.=.-.=.:.=.B S C @ a _ ..! % %.T [ >.=.;.",
":.:.-.^ Q ^ 9.5 g h # ~ ^ Y M [ >.-.>.;.;.-.:.;.:.:.>./ b p h / U =.:.-.=.=.:.-.=.>.:.:.:.Y B c P 2 a ) 1 { $.B T -.-.-.",
":.:.:.R ^ A :.2.O @ I / T &.&.>.;.>.:.:.>.:.>.:.:.:.>.( A F y @.T -.:.-.:.=.-.:.:.;.:.;.:.;.&.Q q ! 1 + D e.Y / &.@.&.:.",
"&.=.( A D A ' C @ 1 J o.U / -.-.-.;.;.>.-.;.>.:.:.:.>.~ ^ Z f =.^ -.:.:.:.:.:.:.-.:.:.=.;.>.{ Y M J # @ 4 | ^ / { n A >.",
"b T A ' { ' y o _ 6.5 a A Q :.>.>.-.:.-.;.>.-.-.=.:.>.^ ` L f :.^ &.:.:.:.:.:.:.:.;.:.5.>.5.+.U h $ [ >.> 1 { T E ^ U ~ ",
"[ | D ~ ' 7 @ K O.%.7.h # S ^ T / :.>.;.;.>.=.-.:.:.:.^ T F f =.E @.>.:.=.:.:.:.:.:.5.+.E Q / 7 5 ;.4.' P @ % L @.o.[ v ",
"( | { _ y @ j ' T U U %._ $ & H U ! =.:.:.;.;.;.:.>.O.0 H F f @.R R >.:.:.:.:.:.5.;.{ U ^ d X j 3.#.D M L ~ # 3 _ =.8.@.",
"S { ' 5 @ J ( A @.O.B E <.$.y 5 Z ! [ E &.>.:.>.:.:.>.T e 8 f A ^ +.>.:.:.:.:.=.Q ^ ` H s 1 [ e.( T ( R ~ } P : $ ) ;.@.",
"} ' 5 + J | @.^ T &.{ >.! B 7.&.y 5 J { ` T B ^ :.:.+.[ v y 4 ! ( @.@.>.+.T T ^ +.) s 1 L 0.q.( R / ( A Q ~ _ I > # I &.",
"_ 1 o k @.>.( B x &.-.:.;.S U $.q.+.y 3 s V L M ^ +.M 0 9 k 7 ` M U / @.Y Q H s 4 5 P 9.2.+.! o.-.:.:.@.E B ' ' L @ # K ",
"> @ J | :.>.U ! @.:.-.:.>.:.` ~ ! 2.w.1.~ h 7 ; < f u u P y 4 ] ~ v p h = 1 4 j @.0.w.>.D ` >.5.>.:.>.>.( ( :.} ' I # $ ",
"O f L } E A e { &.} | @.@.} =.&.@.S D +.*.2.*._ p 3 # # $ o @ $ 1 @ # 5 J $.2.1.%.} ~ B [ &.@.} } } @.=.H c ' v H _ Z O "
};
