/* XPM */
static char *_3b3e81c47014e798b89d16c03758e4acsLVVxz5CsMaYpm5[] = {
/* columns rows colors chars-per-pixel */
"60 60 247 2 ",
"   c None",
".  c #130D0A",
"X  c #140904",
"o  c #19120D",
"O  c #121111",
"+  c #251B15",
"@  c #311A12",
"#  c #2E231B",
"$  c #0A1627",
"%  c #14192C",
"&  c #141932",
"*  c #171E38",
"=  c #0C1832",
"-  c #211D28",
";  c #1B222D",
":  c #192538",
">  c #08233B",
",  c #2A232B",
"<  c #222C3C",
"1  c #252732",
"2  c #2A323D",
"3  c #3A363A",
"4  c #392A28",
"5  c #57321B",
"6  c #4F2717",
"7  c #67351A",
"8  c #6E341C",
"9  c #473327",
"0  c #5B3926",
"q  c #463B38",
"w  c #563834",
"e  c #673B24",
"r  c #703D20",
"t  c #584637",
"y  c #78462A",
"u  c #684837",
"i  c #784939",
"p  c #764A2F",
"a  c #78401F",
"s  c #1C2943",
"d  c #11304B",
"f  c #232D47",
"g  c #233344",
"h  c #23324B",
"j  c #2A3749",
"k  c #2B3B52",
"l  c #273854",
"z  c #30394E",
"x  c #2A3B61",
"c  c #063F60",
"v  c #463D42",
"b  c #2C4153",
"n  c #2E425A",
"m  c #284A5E",
"M  c #334253",
"N  c #32445A",
"B  c #394958",
"V  c #374551",
"C  c #144865",
"Z  c #165372",
"A  c #364A65",
"S  c #3C5265",
"D  c #395569",
"F  c #3D5778",
"G  c #2B5371",
"H  c #35677C",
"J  c #1C465E",
"K  c #474B58",
"L  c #48535C",
"P  c #595659",
"I  c #4A484E",
"U  c #765B59",
"Y  c #6B5754",
"T  c #74665A",
"R  c #465867",
"E  c #595B68",
"W  c #435C72",
"Q  c #435D78",
"!  c #495368",
"~  c #645C65",
"^  c #58636A",
"/  c #486678",
"(  c #546C7B",
")  c #576675",
"_  c #59737C",
"`  c #4D6E77",
"'  c #666469",
"]  c #746A68",
"[  c #6C6B74",
"{  c #686B79",
"}  c #68777A",
"|  c #777579",
" . c #756D76",
".. c #8B4A1D",
"X. c #8C533C",
"o. c #975A3A",
"O. c #8B522B",
"+. c #A35D33",
"@. c #9C6439",
"#. c #916F39",
"$. c #A76739",
"%. c #BB7733",
"&. c #A87033",
"*. c #C27E34",
"=. c #995D42",
"-. c #946845",
";. c #906E53",
":. c #A46644",
">. c #B77847",
",. c #B07351",
"<. c #847B7B",
"1. c #8A7970",
"2. c #A35F41",
"3. c #C07E4B",
"4. c #76817A",
"5. c #B29432",
"6. c #C6873A",
"7. c #D4983C",
"8. c #DBB13B",
"9. c #E9BF36",
"0. c #EAC436",
"q. c #B88358",
"w. c #AF8F59",
"e. c #89867D",
"r. c #96807F",
"t. c #B3906D",
"y. c #CC8E4A",
"u. c #DCA548",
"i. c #C78E64",
"p. c #D69A6A",
"a. c #CB976F",
"s. c #D7A577",
"d. c #C5A66F",
"f. c #E6B25F",
"g. c #395784",
"h. c #2D518C",
"j. c #306E8A",
"k. c #1C6CAD",
"l. c #2E73AB",
"z. c #19559B",
"x. c #546C85",
"c. c #5D798A",
"v. c #5A7587",
"b. c #5B7994",
"n. c #4C7090",
"m. c #657A8A",
"M. c #6A7C90",
"N. c #4A5A88",
"B. c #827D83",
"V. c #897E84",
"C. c #3084BB",
"Z. c #45859B",
"A. c #5B8894",
"S. c #6A858D",
"D. c #768485",
"F. c #6C8593",
"G. c #668696",
"H. c #728E9B",
"J. c #7A8A95",
"K. c #789199",
"L. c #6B919D",
"P. c #5893A9",
"I. c #4F8DAA",
"U. c #7493A3",
"Y. c #7B9AA7",
"T. c #6D91A8",
"R. c #74A6BA",
"E. c #3EACD8",
"W. c #368AC7",
"Q. c #439CC6",
"!. c #4BADD7",
"~. c #47B1E0",
"^. c #68AECB",
"/. c #6FD7EF",
"(. c #8A8588",
"). c #978986",
"_. c #879798",
"`. c #999795",
"'. c #8E8E91",
"]. c #A89489",
"[. c #A49C9C",
"{. c #A59B96",
"}. c #B49F95",
"|. c #A9A29C",
" X c #B9A796",
".X c #879CA5",
"XX c #919DA9",
"oX c #89A4AB",
"OX c #97A9AA",
"+X c #89A9B5",
"@X c #95ACB5",
"#X c #98B3BA",
"$X c #8EB3B6",
"%X c #A9A7A5",
"&X c #B6ACA7",
"*X c #BCB2AD",
"=X c #A9BAB9",
"-X c #BAB6B4",
";X c #9AA59A",
":X c #D5AA85",
">X c #CDB195",
",X c #E6BC8C",
"<X c #C7B7A9",
"1X c #C6BCB6",
"2X c #C09F85",
"3X c #E9C194",
"4X c #C8C1BB",
"5X c #D9CAB9",
"6X c #D6C3AA",
"7X c #EFD4B2",
"8X c #EDD1A1",
"9X c #99BAC5",
"0X c #A3BCC3",
"qX c #B0BEC0",
"wX c #A9C3CA",
"eX c #B4C7C8",
"rX c #B3CBD3",
"tX c #BCD3D9",
"yX c #AAC9D2",
"uX c #81DBEF",
"iX c #B3EEF6",
"pX c #99D7E4",
"aX c #CBC7C4",
"sX c #D3CCC6",
"dX c #C8D2CC",
"fX c #DAD3CC",
"gX c #C5D8D8",
"hX c #D6D9D7",
"jX c #CACDD4",
"kX c #E6D9C9",
"lX c #E4DCD5",
"zX c #D0E1DC",
"xX c #EBE4D8",
"cX c #F4EADC",
"vX c #F8EFD6",
"bX c #C6DCE3",
"nX c #D3E4E6",
"mX c #DBEAE9",
"MX c #CFF2F4",
"NX c #EAE9E5",
"BX c #F2EEE2",
"VX c #F9F6EB",
"CX c #F9F6E9",
"ZX c #E8F5F6",
"AX c #FDFEFD",
"SX c #F8FCF8",
"DX c #E9F1ED",
/* pixels */
"                                                                                                                        ",
"                                    #.                                                                                  ",
"                                  &.9.                                                                                  ",
"                                O.y.8.8.              K._.                                                              ",
"                              @.5.u.y.9.5.          F.9X0X#X.X                                                          ",
"                          @.6.u.u.u.u.8.0.5.      v.oX0XyXrX0X+XK.                                                      ",
"                          o.%.*.6.6.y.7.8.6.    W U.#X+X0XtXgXrX9XoX                                                    ",
"                              &.%.6.6.%.&.      v.#X.XT.0XrXbXbXgXeXOXJ.                                                ",
"                              O.%.%.O.+.O.    R U.9XF.c.#XrXtXbXnXnXwXOX                                                ",
"                              ....0 E ..8     x.+XoXx.( oXwXgXbXnXnXnXwXoX                                              ",
"                              7   h T.P     R G.U.m.A Q K.9XtXnXnXnXnXnX=X_.                                            ",
"                                  h T.oX    v.G.W S N S M.@XrXbXnXnX@X0XtX;X                                            ",
"                                  h n.=X(.  v.W n n R n v..XqXbXmX=XL.G._.=XK.                                          ",
"                                    Q +X#X{ Q n k B ^ l ( K.#XbXgXA.T.R.A.K.oXD.                                        ",
"                                    x b.@Xv.A N l n D.k / G.@XqXK.Z.L.R.P.H v.K.                                        ",
"                                    x g.b.F A k l b J.h W M.m.H j.P.P.P.P.n.G ` ^                                       ",
"                                    ! x G x x l h x _.d D R > G Z.I.P.P.P.Z.H C `                                       ",
"                                      x x x x l s { '.d J / D C j.Z.I.I.Z.Z.H m H H                                     ",
"                                      [ k s h > M =X_.$ d G A.` J Z j.j.j.j.C H D J                                     ",
"                                        ^ j = V _.(.=XV $ > S S.m c Z C C c d H L._                                     ",
"                                          ] | `.    hXF.d S ( U.H C G L.rX$XA.K.oXG.)                                   ",
"                                                    zXU.m / v.U.oXoXrXZXZXZXmXzXeX$Xc.                                  ",
"                                                    @XF D / c.L.$XrXrXtXgXgXgXeXoXS.H W R                               ",
"                                                    x.A D A D W S.+X=XtXzXnXmXDXmXdX.X^ S                               ",
"                      Y.+XeXOX}                   =X.XE n D / K.+X=XeXgXzXmXDXDXSXAXSXdX(.                    ^         ",
"                    R./.ZXAXAXDX;X                D.D.B F c.H.oXOX=XwXdXzXmXmXhXdXdXOX;XeXOX                V V         ",
"                  P.~.uXAXAXSXAXZXK.R       0X.Xv.S A W ( c.H..X@X0XrXqX=X$XK.) B z j V ^ _._.            B < &         ",
"                ` l.~.iXAXAXAXAXAX^.K.-X}.%XG.F A A D / v.G.H.oXXX.XJ.x.L I t 2 9 e 3 > < b ) H.D.    ( R < *           ",
"                h.l.~.iXMXAXAXAXiXW.eXcX8X] : j n S N.m.v.c.A.) ! x K K w X.2.Y ' U 0 , , 2 z ! S.F.m.R g & &           ",
"                @XP.~./.iXiXMXMXiXl.OXkX>X3 % : < z B A N B b V ! E U e i X.X.Y ' m.Y e r w 1 f b R B < % &             ",
"            6XkXcX9X!.E././././.uXk.&X5X-.% & & ; : 1 q q v ~ ' X.=.2.=.=.,.p.,.=.Y E Y i z h s : < * % &               ",
"          8X7X7XkX|.^.C.C.!.!.l.z.n.d.>XX., f : & = = 9 ;.w ;.Y X.2.,.2.p.3XkX,X,.=.I Y z x x h * & * <                 ",
"        ,X3Xs.3X>Xw.A.C.C.h.h.z.k.4.w.w.p     ^ ! K z : 1.] i :.,.i.s.>Xt.,X>X,Xs.i.V.K ~ K x x f z                     ",
"          p.a.,.,.w.1.Q.~.W.k.I.4.t.w.#.a             ] ].e.).i.p.s.kXVX&XV.V.1XcX,X<X1.<.Y                             ",
"            ,.X.&.>.>.;.` A.Y.;Xd.t.-.p #           L {. X].4X>Xs.kXSXkXi.:Xi.t.BXxX<X}.<X                              ",
"              ..O.&.$.$.-.-.-.-.:.-.o.5         ; 4.V 1.xX6X5X5XkXVXBX2X:XBXBXd.2XxXkX<X<X                              ",
"                8 r O.o.>.>.-.@.:.@.5 @       L =XdX: } <X&X7XcXCXxX}.5XBXCXAXcX}.<XkX<X1.q                             ",
"                  8 7 7 r p O.@.$.7 @       ^ %XgXW g N e.r.&X<X<Xr.6XCXCXCXCXAXkX].<X}.~ j                             ",
"                      6 5 6 e @.@.5         P OXR.` b > , ~ P ' ] 5XCXCXCXCXVXVXBX*X<. .< W                             ",
"                            5 o.$.y         hX9XA.H.^ < , P K  .1XCXcXCXCXCXVXSXCXlX).K < R                             ",
"                            5 y $...      4XZXbX=XS.S._ I ~ E &XlXcXBXBXVXBXVXVXBXNX*X .K x..X                          ",
"                            5 e o.r I   '.fXmXtXbXyXR B P ] m.&XfXxXcXBXcXcXNXBXxXxX<X|  .K.H.'.                        ",
"                              e -.O.t.vX>X4._.qXyXbXoX$ t { ~ {.1XlXlXlXNXxXNXcXlXlX&XV.'.Y.H.K.                        ",
"                            4XfX5Xs.i.p.q.P m.^ wXyXyXB q E L B.[.1XsXfXlXlXlXlXsXsX[.B.`.Y.Y.K._.                      ",
"                            >X3X:Xq.:.i.p., K.R .X$X+XR V E ~ [ V.[.-X4XjXfXfXfXaX-X`.| `.Y.Y.L._.                      ",
"                            t.s.,.q.t.,.q., m.S.S.oX} j V E [ { ' V.[.1X4X1XsXaX-X*X(.[ (..X+XU.OX                      ",
"                            ].,X,X,Xp.o.7 % ) oXS.H.R I k ! P '.~ [ V.%X1X*X1X4X&X[. .{ (.F.c.oX=X                      ",
"                            U s.i.p.i.=.O.; L +X` ` ^ '.N z j L B.] M.(.&X1X%X1X[.'.[ ~ ! k ! eX                        ",
"                          v.I s.s.p.p.+.w & L #X! N `.%XQ Q A : z | | B.<.*X[.*X'.| [ h s f D.                          ",
"                           .j -.p.p.i.u 1 * ! 9Xk  .4XXXY.+X9XG.$ P (.'. .B.|.&X<.B.' : 9 t p t                         ",
"                          M.z I ;.=.u + j % ! +X* jXaX) R.9X0X9X< ; (.[.).(.V.).).`.P # 4 t p Y u                       ",
"                          M.z j f 6 O.w 2 f ) H.& NXOXb..X9X9X9Xk % <.&X[.&X[.(.r.[.' + # @ X X 9 u                     ",
"                           .h f h 9 =.e 3 j { Q I hXXXb.Y.9X9XF.g ; <.*X*X&X*X*X[.[.<.3 o 6 9 t . 4                     ",
"                          m.h f h , p p 3 f M.A <.hXM.x.Y.9XyXG.h R |.1X1X<X-X<X&X[.[ K 1 X q ].. o t                   ",
"                          m.z * f 1 e y q z M.B `.bXN.x.Y.9XyXM.j ^ {.<X1X1X1X1X&X*X| n S X | }.. o + 4                 ",
"                            K * f j 0 r q z M.K 4XjXN.b.T.+X0Xx.b j {. .|.1X1XaXaXaXaXE k E ;X' . o + #                 ",
"                            ) f f 2 0 e 9 E ( | xX@Xg.b.T.9X9Xg.d L | g m |.].`.&X%X{.e.^ | P + o + o #                 ",
"                            { z s g 9 y 5 _ { &XDXH.g.b.T.+X9X! j L b l g g ' P P | ] T E B + . o o . +                 ",
"                              g s h # e 5 I `.jXlXN.g.n.M.+XXXx b b b b b : : : 2 2 < m D A 2 . o o . .                 ",
"                              f s s ; 5 5 Y XXaXqXN.N.N.b..XU.x J b b b b < ; ; ; = O b ( D   O . o                     "
};
