/* XPM */
static char *_df1cf2cdcb74b28a399a4c0592e709bMX9hRVynJfCEPmjq[] = {
/* columns rows colors chars-per-pixel */
"60 60 158 2 ",
"   c #0F0E19",
".  c #100F19",
"X  c #161216",
"o  c #14141D",
"O  c #1A131B",
"+  c #151A1F",
"@  c #1C181F",
"#  c #161521",
"$  c #191722",
"%  c #161921",
"&  c #1B1C24",
"*  c #1E1E28",
"=  c #221E26",
"-  c #1D2126",
";  c #1E222A",
":  c #222226",
">  c #23242C",
",  c #28262D",
"<  c #272A2E",
"1  c #29292E",
"2  c #232630",
"3  c #262A32",
"4  c #2B2C32",
"5  c #2D2F38",
"6  c #302F34",
"7  c #2D3136",
"8  c #2E3239",
"9  c #323336",
"0  c #383537",
"q  c #353937",
"w  c #383A37",
"e  c #33363A",
"r  c #38373C",
"t  c #353A3D",
"y  c #3A3B3D",
"u  c #413E3E",
"i  c #3E403E",
"p  c #40423F",
"a  c #363B40",
"s  c #3B3D42",
"d  c #403F43",
"f  c #3D4244",
"g  c #3F4548",
"h  c #434445",
"j  c #494746",
"k  c #454946",
"l  c #494A46",
"z  c #434549",
"x  c #454A4A",
"c  c #4B4C4B",
"v  c #504E4B",
"b  c #47504E",
"n  c #4C524D",
"m  c #52524E",
"M  c #59574F",
"N  c #51594F",
"B  c #4C4E50",
"V  c #504F53",
"C  c #4D5452",
"Z  c #4F5854",
"A  c #545552",
"S  c #595754",
"D  c #545A54",
"F  c #5A5B56",
"G  c #545B59",
"H  c #5C5D59",
"J  c #605E57",
"K  c #605E5A",
"L  c #5B6057",
"P  c #5D625B",
"I  c #616057",
"U  c #62635D",
"Y  c #69675E",
"T  c #61695F",
"R  c #6A695E",
"E  c #5A6462",
"W  c #646560",
"Q  c #666560",
"!  c #656660",
"~  c #656661",
"^  c #666761",
"/  c #666662",
"(  c #666762",
")  c #676762",
"_  c #656660",
"`  c #696660",
"'  c #686761",
"]  c #696661",
"[  c #676861",
"{  c #676862",
"}  c #676863",
"|  c #656962",
" . c #6A6961",
".. c #6A6A60",
"X. c #696962",
"o. c #686963",
"O. c #696A63",
"+. c #6A6A63",
"@. c #6D6B61",
"#. c #6D6C63",
"$. c #6A6964",
"%. c #6A6965",
"&. c #696A64",
"*. c #6A6A64",
"=. c #6A6B65",
"-. c #6B6A65",
";. c #6E6D65",
":. c #6D6C66",
">. c #6F6E67",
",. c #6B6B63",
"<. c #706F67",
"1. c #726D63",
"2. c #716F69",
"3. c #6F7063",
"4. c #6B7068",
"5. c #707064",
"6. c #727165",
"7. c #717066",
"8. c #707267",
"9. c #747367",
"0. c #727266",
"q. c #717068",
"w. c #737169",
"e. c #74726B",
"r. c #76736A",
"t. c #747569",
"y. c #75746B",
"u. c #76756A",
"i. c #77766A",
"p. c #76756C",
"a. c #74746A",
"s. c #787569",
"d. c #78776D",
"f. c #79776B",
"g. c #79796E",
"h. c #7C7A6F",
"j. c #7B7A6E",
"k. c #767670",
"l. c #7C7B72",
"z. c #817E74",
"x. c #817E73",
"c. c #848274",
"v. c #898776",
"b. c #8D8877",
"n. c #868579",
"m. c #8A8678",
"M. c #888779",
"N. c #89897E",
"B. c #91917F",
"V. c #91907E",
"C. c #909081",
"Z. c #929380",
"A. c #959282",
"S. c #9E9F87",
"D. c #9D9A86",
"F. c #9B9A88",
"G. c #9E9B8A",
"H. c #9D9B8B",
/* pixels */
"1 y J m v H F A m F j S S j = 4 ` v m J S F F v v S S S m , < u u u j J J r r J ` v u j 9 = J Y F m v c p r 4 6 V J c r ",
"y b.C.p.<.1.$.1.@.U 9.2.Y <.9 v G.r.p.h.w.>.2.:.z.r.X.1.V.c S s.v S S v V v j K S m J s.c 9 S.F.7.y.j.d.r.r.R 6.s.2.l.c ",
"r.N.H H H H H K P H F F H K , s k.S H U U U ~ U U m A A <.n j A r r a s r d a 0 e 0 0 V 9 p C.H G H H H H ~ 9.` H A U 9 ",
"-.k.U U U U W W U U U H S Q 5 5 &.U H H U ~ } X.~ U F A X.j y S s s a d d d d s s u s v e x y.F S M H U U U ~ ~ U F U r ",
"H :.} X.U U ~ ~ } &.U U H -.z a W H F H U U ~ X.X.U ~ F S c d A s s s d s s a a a s s d r z ` F A G U T ~ ~ ~ X.T U U F ",
"x &.&.&.~ ~ ~ U ~ / } U H W a 3 ~ H J X.U U U } } &.~ &.F c e A d d d d s a a a r a a d d z J F U U U | &.X.~ X.} U U m ",
"h K ~ :.U U U ~ ~ U U U H P 8 e -.F U U U U U X.~ ~ Y U e.r a A s z z h s s a f d s s s u z W U U U | =.} | U } } U _ B ",
"z H P =.X.~ U U U U ~ P D H C f } G U U ~ U ~ U U } T G E c e A g g g f f s a a s a a d 4 z H E U T | | | | T P E H P c ",
"r G H / ~ ~ U U U U H L D D t s P G L P P U T T _ | P L P g 7 x f g f f f f f f f f i g a x L G P | P | E P T P P L L g ",
"e H G W ~ U U U J P G D D C 3 f G D L L L U P P P P L L L g 8 g a f f f g f g f f f i f e h C G P P P | | P L P L L D x ",
"a H A G U P W H G L P G N A 3 s D C D D G L P P P D D D L g 8 f e t a f f f g f f a a g 8 7 G G G P P E P L D G G D Z y ",
"d H A D G G H P F D D D b Z 8 a Z C D N D D G L D N D n Z g 4 t e e a f f f a f t f a g 7 t G C G L P P L D L D N b C z ",
"f H D A A D D G P G n x k A 8 8 G B Z Z D D D D N D n x b 8 7 f 8 t t a t t a a t t t f 3 k Z C Z Z D G G D D n n j G C ",
"s W P A A C C C C C b C Z E 4 ; B G G Z C A A Z D n b b g ; < i s s f f g g f g g g g b 4 7 Z C G L G Z n b b C b n L 9 ",
"> < < 3 > 2 2 2 ; > ; 2 8 7 & + & 3 3 ; 2 2 2 ; 3 < - : 4 - - - * ; & * & ; 2 < 4 < ; ; + + 4 3 ; f t 7 8 > - < 4 4 > - ",
"$ < h j c c B c c z c c h 7 & > e s a x S A B s = < f 7 7 ;   i A a x S X.9 o o o y l n 9 $ r z n f q t y s s e f y q e ",
"H U j m j j z z h d j j m :.4 h k.U M m c m S F M M Y U c 9 0 c.l.l.l.d.k.z.1.K Y f.$.n.%.3 } H A 1.K v v c j S K H U H ",
"c F j y r a s s r a 9 5 9 A 1 h ~ h h y h s y s y y h j S 1 ~ H.K H H D A H ~ $.Y S c -.H e G s d d s a e r r 0 0 9 z s ",
"h B j p d s s d d s x d r A , f S h h h h h h d h y y u v < D l.H U U L F H S D D F S 2.B r D s d z s d a r s r a a h c ",
"z S u y s r s s d s s s r v , a D j c c v h h h h h h p c , c d.H U ~ } W U U K K H H X.c r c s z s d s s s a a r d h r ",
"s c r f s s s d z s a a e D 9 = V j c c v c j z j h h h c = d 2.U U X.&.} T P | W W U ..z f f s s a s s d d s r a s d r ",
"e j y s s s s d d s a r 8 N 9 , A c c C c c j j j c j k c 4 r } L E U ~ U | =.&.~ ~ | 4.g 3 h s a s s s d s 5 6 r d d F ",
"x h r h s s d d s r r r t g 3 8 V c B c c c j h h h j h h t 5 L L P P P T T | | ~ | P &.q + h g s g s d d a 0 a s a h S ",
"h h t f z z d s s a r e t f 8 8 B x x h z c c z h h k h g s 4 G Z L P L U } | | U P P | 7 - g f g s s s s s s s s s d B ",
"6 z e i f f f f a t t t 8 f 8 8 g i g g g k x k h k g i i i 3 Z C D L L P E T P P P L L f 3 f a a a a s s s a a f t g e ",
"t h q t t e a t t t t 8 8 t 3 3 g 7 8 i k g k k k k i i i i i g C G D D L P P P P P F D f 8 f i a a e a s s a f a e f a ",
"s z t t t a t t t e e e 8 i 2 8 f i 8 8 i i f i f f q 7 f f i g b Z b C D L L L L D N N ; 8 f q a 8 a a a f f f s e s s ",
"e x t a t t a t t e 8 8 8 f ; ; i i f t q f t 9 q i q 8 f 8 f Z x x b C C N n n b k k D i ; 8 i a 5 8 a a f f a t e d z ",
"5 s y 9 8 q f t q s t e s s : % g g f g g q q c y f f i 7 + ; g B C b B k y 9 y p p i D 7 $ > < 8 8 t f f f a a a s B V ",
"% & o & 2 ; - ; : 1 4 3 % o + $ + - - + : 3 2 , * - : : +   + ; > 2 ; * & # $ > 9 7 $ + & % X o - 2 2 > ; ; ; 5 > : 5 : ",
"& 9 l p 1 1 7 9 w u u h j i @ 1 h k Z | F u u F F m w y i : - f h c h y h c c u i r y c : + i f q 9 c i r u g t h h 5 5 ",
"j v.I I I I F m S F J F <.n., F F.g.4.a.c.#.7.j.r.h.R R B.L k j.K J Y -.S J S A H U F v.n 8 Y Y R R Y I I F U L Y s.f.d ",
"q U u j j D l p h j j h h 7.9 j w.v H A D H H G S A W H p.A h S f s d c s s s a a a 6 S d = K V j j p p h j h h h y @.` ",
"e F j c c c m v v n v l j U u y r.D V m H K W W W W W H p.c h S s d z s d s s s a a a d , 5 ` d h h h h h h c h j c A U ",
"H I j A m M D M M N m m j U q h r.F H U W W ~ ~ W W W H :.c z A z B s d s s s s s a a d a d ` d h h p r u j h j j j A c ",
"H U c A D D M F A A m m m F 6 j K H U W / $.$.~ W W / W ~ s s c A d d d d d d s s s a d 2 s S V j h h d y j j c c c c d ",
"n H A A F A S F F S D n c b < j S F U ~ ~ ~ X.U W W U U ` z 3 A c z d s z d s s s a r f 5 5 V c j h c h p p k k c z j s ",
"A F M F F F F L L F D n b D a 9 H D G U } } } } _ / U G W h r b d z z g s d s d s s y h s z c z j h j c h j x k z h c f ",
"v F V S F H F D D D Z N x b a e A A P L | } } X./ ~ U H H a e z s s s s z z z z d s s f s d c h z c h h h j b k z h h r ",
"c D v m D F G D N N C D C z f r G G P P P T } X.~ P H F G f 8 z e 4 a s s d d d s s t f f 3 z d h h k k z k g g h f h 8 ",
"h N v n c D D D Z Z C b L x ; i G G Z G G P U U U G G D Z g t g t e 8 a a s f f s s t i a 3 g g g g b x g f g i z f h e ",
"h F k n N N n Z N b b b i b t t B Z C C C G D S F D D n C a a f t r t s a s g a t t 8 f a 8 f t f g g x g f i g z f z d ",
"z A j h j l n n c k k i f g f 8 Z x C x n v n n N n n b C f e z t t a a a a f f t e e f 4 t g i g g g g g g f f h s h s ",
"r H N k h k b n b b b b g Z < 8 E Z Z Z C b C A D D A b n 8 - g x f h z z x z k g g f k ; < f f g b g x b g g g z x A s ",
"* 3 7 4 1 4 9 h t e t 8 8 7 - + < < 7 r 8 5 4 > 3 3 3 > - > % - 2 ; 3 3 > 3 2 < ; 3 4 < - - 7 - ; ; ; ; 2 3 > 2 8 4 3 > ",
"* 7 h h 9 y r 9 r y u m f 7 + 7 m m s #   X 3 J j r 9 H c o , h f h * 4 h j x c f t q 1 ; ; q g D n C A n c c A A h c < ",
"a p.I I m v v M M F Y F D ..- 3.D.0.x.1.U @.v.c.s.s.Y j.C.h y J R r.F S U F F J R U 3.c.f i n.8.#.#.Y X.U U Y Y 9.7.V.K ",
"c J w 9 r r r r r 9 9 e r S 7 P 9.M R x.x.x.5.U F Y F J b.S p x.m M m c h h j j k k j 3.b i g.N H U A c A A A m F X.x.S ",
"A m r e 9 r s y e e r r r F r S r.H U F H H U U U H H A 9.c v U h c h j c c c c c c h F c 9 J D S H V v v S S A S W ` B ",
"j l r r r s d a r r r s e F j A w.H U U U U J H U U K F 7.j p F h j y h c c c c B c j V d 9 U A G G V v V A D S G V -.S ",
"z v y d s d d s y s s a r c p c 4.U H U J H L K U ` T D Y y r S h y p c j j c c c v c c , u 1.A V S S V A V A S S A W v ",
"j h y s s d s s s s y a y s < h } F H F U P U U T T P L G r y m h j j j h h d j j c j N < j 7.c V S G V A A A S A A K d ",
"m k y y s a s s r s s y s s * a U S F H G L U L P T P Z D 4 w n i j h j j h j h j j p n r 4 J m v A D A V V A A V A D V ",
"h f y f d h d s s s s a f f : < G D D F H F D G P P L N n < q k i p u p d h h u j p p c r r M n c c v m V B c v c c V c ",
"e h s s s s s s a a f f t g 8 < C G n N D N D D L D D n n e 7 f y i u w y p y p p p i k r q b c c b n n c B c c c c B e ",
"a h t s s a a r t t a a e f e 4 n D n n b N D D D N n x b e t i w i i i w y p p i i f j 5 8 c z f k x k x B c c c c v a ",
"g d a a r e t t 8 e i a t f t & C Z b n C C D N n b k h c t y q 9 w w i w w p p p y p p s 9 x h h x k k z z h x x k m z ",
"z z 8 e e 5 8 e e t t 8 t B e - b D C C n n n b c k g i b t i k q q w w w y p y y p y p < 4 c z x x x x h z h g h h c r ",
"B S z a a r s s f t f g b C 3 - q x x h q y g x x b b k m 9 @ h c z j q h y u l h h j h @ 3 c x h x x x c x z h d j z 9 ",
"4 s 4 4 a 4 4 4 3 3 t t 7 > $ % - - 9 9 , * * : < 7 4 1 < @ O = 3 , , : 6 4 6 r 4 1 1 1 = $ < , 6 7 9 < 3 , < 3 = > , $ "
};
